# xmcd
#
# Track frame offsets:
#	150
#	15213
#	26000
#	42363
#	53363
#	71225
#	85350
#	97263
#	106600
#	119350
#
# Disc length: 1901 seconds
#
# Revision: 1
# Processed by: cddbd v1.4PL0 Copyright (c) Steve Scherf et al.
# Submitted via: audiograbber 1.81.00
#
DISCID=78076b0a
DTITLE=Trond Granlund - Roots
DYEAR=1900
DGENRE=
TTITLE0=I`m A Long Gone Daddy
TTITLE1=Feelin`Single, Seeing Double
TTITLE2=There Ain`t No Place
TTITLE3=Hole In My Pocket
TTITLE4=Danny`s Drugstore
TTITLE5=Hey Good Lookin
TTITLE6=Bayou Stomp
TTITLE7=Baby Let`s Play House
TTITLE8=I`m Satisfied With You
TTITLE9=Say We`re not Apart
EXTD=
EXTT0=
EXTT1=
EXTT2=
EXTT3=
EXTT4=
EXTT5=
EXTT6=
EXTT7=
EXTT8=
EXTT9=
PLAYORDER=
